<svg xmlns="http://www.w3.org/2000/svg" width="3240" height="2200" viewBox="-900 0 3240 2200"><defs><filter id="b0" filterUnits="userSpaceOnUse" x="-400.9" y="-400.9" width="1291.8" height="1259.8" color-interpolation-filters="sRGB"><feGaussianBlur stdDeviation="133.30"/></filter><filter id="b1" filterUnits="userSpaceOnUse" x="-901.0" y="-901.0" width="2439.0" height="2439.0" color-interpolation-filters="sRGB"><feGaussianBlur stdDeviation="300.00"/></filter><filter id="b3" filterUnits="userSpaceOnUse" x="-901.0" y="-901.0" width="3090.0" height="2310.0" color-interpolation-filters="sRGB"><feGaussianBlur stdDeviation="300.00"/></filter></defs><rect x="-900" y="0" width="3240" height="2200" fill="#ffffff"/><g transform="matrix(1.000000 0.000000 0.000000 1.000000 -473.00 1232.00)" filter="url(#b0)" opacity="1.000"><ellipse cx="245.00" cy="229.00" rx="245.00" ry="229.00" fill="#7a4aeb" fill-opacity="0.400"/></g><g transform="matrix(1.000000 0.000000 0.000000 1.000000 -633.00 1804.00)" filter="url(#b1)" opacity="1.000"><ellipse cx="318.50" cy="318.50" rx="318.50" ry="318.50" fill="#7a4aeb" fill-opacity="0.400"/></g><g transform="matrix(1.000000 0.000000 0.000000 1.000000 -108.00 -51.32)" opacity="1.000"><path d="M457.669 270.273L455.372 272.203L455.382 272.216L455.392 272.228L457.669 270.273ZM457.669 597.565L455.351 595.661L455.344 595.668L455.338 595.676L457.669 597.565ZM261.24 839.933L258.909 838.044L258.822 838.151L258.745 838.266L261.24 839.933ZM98.2707 917.346L98.6189 914.367L98.4454 914.346L98.2707 914.346L98.2707 917.346ZM33.8262 839.933L36.1235 841.862L36.1348 841.849L36.146 841.835L33.8262 839.933ZM314.529 497.613L312.468 495.433L312.33 495.564L312.209 495.711L314.529 497.613ZM347.681 432.285L350.653 432.69L350.709 432.284L350.653 431.878L347.681 432.285ZM312.67 366.957L310.379 368.894L310.532 369.075L310.711 369.229L312.67 366.957ZM68.8368 78.5362L66.5395 80.4656L66.5458 80.4731L68.8368 78.5362ZM133.281 1.12282L133.281 4.12282L133.455 4.12282L133.628 4.1027L133.281 1.12282ZM296.56 78.5362L294.069 80.2076L294.159 80.3421L294.264 80.4661L296.56 78.5362ZM457.669 270.273L455.392 272.228C483.369 304.819 500.725 329.541 511.119 353.103C521.478 376.585 525 399.092 525 427.387L528 427.387L531 427.387C531 398.52 527.396 375.134 516.609 350.682C505.857 326.309 488.047 301.056 459.945 268.319L457.669 270.273ZM528 427.387L525 427.387C525 455.69 521.476 480.777 511.072 507.213C500.653 533.687 483.273 561.669 455.351 595.661L457.669 597.565L459.987 599.469C488.143 565.193 505.928 536.668 516.655 509.41C527.398 482.114 531 456.246 531 427.387L528 427.387ZM457.669 597.565L455.338 595.676L258.909 838.044L261.24 839.933L263.57 841.822L459.999 599.454L457.669 597.565ZM261.24 839.933L258.745 838.266C240.93 864.927 216.668 886.039 188.506 899.417L189.793 902.127L191.08 904.837C220.248 890.981 245.334 869.135 263.734 841.6L261.24 839.933ZM189.793 902.127L188.506 899.417C160.344 912.794 129.304 917.953 98.6189 914.367L98.2707 917.346L97.9224 920.326C129.737 924.044 161.91 918.693 191.08 904.837L189.793 902.127ZM98.2707 917.346L98.2707 914.346L67.288 914.346L67.288 917.346L67.288 920.346L98.2707 920.346L98.2707 917.346ZM67.288 917.346L67.288 914.346C47.5709 914.346 32.5797 913.424 21.9535 911.137C11.1652 908.815 5.83751 905.291 3.9238 900.948C1.99087 896.561 2.92758 889.983 8.36402 879.911C13.7154 869.997 22.9792 857.513 36.1235 841.862L33.8262 839.933L31.5289 838.003C18.338 853.71 8.74113 866.581 3.08409 877.062C-2.48789 887.384 -4.70741 896.24 -1.56679 903.367C1.59304 910.538 9.56861 914.609 20.691 917.003C31.9754 919.431 47.5022 920.346 67.288 920.346L67.288 917.346ZM33.8262 839.933L36.146 841.835L316.849 499.516L314.529 497.613L312.209 495.711L31.5064 838.031L33.8262 839.933ZM314.529 497.613L316.59 499.793C335.085 482.311 347.13 458.552 350.653 432.69L347.681 432.285L344.708 431.88C341.365 456.426 329.938 478.92 312.468 495.433L314.529 497.613ZM347.681 432.285L350.653 431.878C347.044 405.553 334.208 381.574 314.63 364.686L312.67 366.957L310.711 369.229C329.146 385.132 341.292 407.768 344.708 432.693L347.681 432.285ZM312.67 366.957L314.961 365.021L71.1278 76.5994L68.8368 78.5362L66.5458 80.4731L310.379 368.894L312.67 366.957ZM68.8368 78.5362L71.1341 76.6069C57.9897 60.9559 48.726 48.4717 43.3746 38.5576C37.9381 28.4859 37.0014 21.9078 38.9344 17.5212C40.8481 13.1782 46.1758 9.65419 56.964 7.33224C67.5903 5.04516 82.5815 4.12282 102.299 4.12282L102.299 1.12282L102.299 -1.87718C82.5128 -1.87718 66.986 -0.962184 55.7016 1.46656C44.5792 3.86044 36.6036 7.9308 33.4438 15.1018C30.3031 22.2292 32.5227 31.0848 38.0946 41.4076C43.7517 51.888 53.3486 64.7592 66.5395 80.4656L68.8368 78.5362ZM102.299 1.12282L102.299 4.12282L133.281 4.12282L133.281 1.12282L133.281 -1.87718L102.299 -1.87718L102.299 1.12282ZM133.281 1.12282L133.628 4.1027C164.358 0.525438 195.441 5.68817 223.65 19.0631L224.936 16.3523L226.221 13.6416C197.004 -0.210691 164.791 -5.56554 132.934 -1.85705L133.281 1.12282ZM224.936 16.3523L223.65 19.0631C251.862 32.4387 276.182 53.5448 294.069 80.2076L296.56 78.5362L299.052 76.8649C280.579 49.3299 255.436 27.4931 226.221 13.6416L224.936 16.3523ZM296.56 78.5362L294.264 80.4661L455.372 272.203L457.669 270.273L459.966 268.344L298.857 76.6063L296.56 78.5362Z" fill="#7a4aeb" fill-opacity="0.060"/></g><g transform="matrix(1.000000 0.000000 0.000000 1.000000 76.00 577.00)" filter="url(#b3)" opacity="1.000"><ellipse cx="644.00" cy="254.00" rx="644.00" ry="254.00" fill="#7a4aeb" fill-opacity="0.400"/></g></svg>