<svg width="2162" height="1564" viewBox="0 0 2162 1564" fill="none" xmlns="http://www.w3.org/2000/svg">
<rect width="2162" height="1564" fill="#FEFAFA"/><g id="Group 9749" opacity="0.9">
<g id="Ellipse 35" filter="url(#filter0_f_1512_2436)">
<path d="M1752.97 1153.54C1512.57 1419.76 982.847 1392.01 774.004 1203.41C565.162 1014.81 940.235 961.729 1180.64 695.518C1421.04 429.308 1336.62 216.119 1545.46 404.717C2094.17 695.518 1993.38 887.334 1752.97 1153.54Z" fill="url(#paint0_linear_1512_2436)"/>
</g>
<g id="Ellipse 32" filter="url(#filter1_f_1512_2436)">
<path d="M1106.16 1187.53C911.727 1099.08 482.314 1423.76 322.21 1053.95C119.933 871.286 391.003 886.448 538.854 722.726C686.705 559.004 655.35 278.395 857.626 461.063C1059.9 643.731 1306.96 1278.87 1106.16 1187.53Z" fill="url(#paint1_linear_1512_2436)"/>
</g>
<g id="Ellipse 36" filter="url(#filter2_f_1512_2436)" style="mix-blend-mode:overlay">
<path d="M675.374 396.204C696.736 369.134 693.939 335.13 694.336 295.521C699.338 255.914 684.815 206.197 778.625 139.165C827.461 108.957 886.829 110.425 916.846 121.192C949.265 131.772 965.838 145.857 981.461 159.21C1010.35 185.929 1029.17 210.336 1066.32 240.657C1070.36 244.004 1074.62 247.502 1079.12 251.188C1167.95 325.717 1196.2 428.705 1234.58 457.989C1272.45 488.355 1230.91 517.936 1270.6 567.901C1309.99 618.646 1320.65 656.955 1327.44 713.89C1335.9 770.983 1378.56 930.518 1406.94 990.3C1422.5 1020.19 1423.86 1057.55 1411.37 1094.53C1404.73 1113.45 1394.41 1132.83 1374.91 1146.51C1355.29 1160.01 1334.06 1157.85 1321.81 1154.64C1305.98 1150.45 1297.55 1142.92 1291.05 1136.35C1288.31 1133.48 1288.12 1129.73 1289.47 1126.77C1289.48 1126.77 1289.48 1126.77 1289.48 1126.76C1291.17 1123.06 1295.13 1120.52 1299.1 1121.57C1308.18 1123.93 1321.11 1125.44 1330.72 1120.83C1340.49 1115.69 1339.39 1108.27 1336.26 1096.35C1317.42 1050.28 1344.79 1036.09 1312.28 956.12C1275.75 876.012 1231.47 838.111 1206.92 736.997C1179 635.206 1103.43 648.936 1065.64 507.316C1037.38 412.46 987.544 396.536 938.088 382.657C924.42 378.139 910.982 374.175 898.333 370.597C885.881 366.845 871.929 363.832 872.928 366.432C873.642 367.319 877.75 369.27 886.531 369.541C894.842 369.964 907.913 367.198 916.468 362.598C925.188 358.121 929.172 353.584 929.738 352.438C930.384 351.118 928.235 352.691 925.446 355.934C912.973 370.253 893.049 406.145 874.032 439.848C835.822 509.57 789.588 578.494 758.421 623.343C748.357 638.362 736.891 654.145 723.489 670.177C657.187 752.927 545.073 815.968 455.714 853.097C438.684 860.512 422.922 869.661 416.267 875.476C413.005 878.12 412.979 879.553 415.882 875.175C418.875 871.142 422.432 859.097 421.923 851.842C421.644 844.333 420.656 843.323 422.522 845.595C424.198 847.763 427.82 852.498 433.108 858.301C443.275 869.464 457.582 882.72 473.782 896.804L500.243 933.679C516.827 969.962 534.677 999.965 552.41 1026.18C592.251 1115.53 793.334 1126.32 884.424 1119.09C977.021 1116.55 999.243 1112.71 1086.87 1087.28C1136.29 1073.27 1218.79 1068.84 1274.9 1109.19C1301.26 1130.42 1286.07 1138.95 1259.12 1137.44C1219.31 1136.78 1185.35 1132.33 1165.31 1151.4C1126.51 1190.66 1114.35 1206.78 1056.11 1196.82C997.257 1187.58 980.752 1240.43 946.252 1242.13C909.46 1241.38 913.9 1224.84 729.11 1260.7C529.8 1294.07 395.428 1176.65 351.854 1115.39C333.985 1092.93 316.232 1059.36 301.92 1019.54L328.94 1057.19C302.568 1028.93 272.333 998.532 243.153 943.416C229.322 915.95 212.7 870.632 225.153 818.622C238.001 767.6 267.608 739.43 286.697 720.875C391.898 635.017 524.188 592.564 564.651 526.736C572.302 516.348 578.164 506.057 582.067 496.933C606.262 434.566 632.297 448.11 675.374 396.204Z" fill="#7F4CBF" fill-opacity="0.29"/>
</g>
<g id="Vector" opacity="0.77" filter="url(#filter3_f_1512_2436)">
<path d="M868.126 834.754C907.156 877.358 917.076 899.938 917.076 937.216C917.076 974.495 907.156 1003.68 868.126 1048.2L731.415 1206.26C718.812 1223.93 701.64 1237.94 681.689 1246.82C661.738 1255.7 639.74 1259.13 617.991 1256.75H596.428C541.441 1256.75 536.481 1247.16 573.139 1206.26L768.503 983.015C781.019 971.93 789.187 956.848 791.576 940.411C789.132 923.699 780.438 908.499 767.21 897.807L597.506 709.711C560.848 668.811 565.808 659.225 620.795 659.225H642.358C665.774 660.488 686.164 660.279 706.148 669.157C726.132 678.035 743.345 692.038 755.998 709.711L868.126 834.754Z" fill="white" fill-opacity="0.07"/>
<path d="M620.794 659.601H642.358C665.801 660.865 686.097 660.66 705.995 669.5C725.919 678.352 743.078 692.312 755.692 709.93L755.704 709.947L755.718 709.961L867.847 835.004L867.849 835.007C887.356 856.301 899.563 872.564 906.897 888.143C914.226 903.709 916.7 918.616 916.7 937.216C916.7 955.818 914.225 972.381 906.89 989.846C899.553 1007.32 887.343 1025.71 867.844 1047.95L867.842 1047.95L731.131 1206.01L731.119 1206.03L731.109 1206.04C718.546 1223.66 701.426 1237.62 681.536 1246.48C661.646 1255.33 639.715 1258.75 618.032 1256.37L618.012 1256.37H596.428C582.685 1256.37 572.097 1255.77 564.511 1254.24C556.899 1252.71 552.439 1250.26 550.757 1246.68C549.077 1243.11 550.083 1238.23 553.906 1231.59C557.716 1224.98 564.257 1216.73 573.419 1206.51L573.422 1206.51L768.772 983.278C781.342 972.136 789.548 956.982 791.949 940.465L791.957 940.41L791.949 940.357C789.491 923.559 780.756 908.28 767.465 897.529L597.784 709.459H597.785C588.624 699.238 582.083 690.994 578.273 684.38C574.451 677.744 573.443 672.863 575.123 669.29C576.806 665.713 581.266 663.266 588.878 661.731C596.463 660.201 607.052 659.601 620.794 659.601Z" stroke="white" stroke-width="0.751944"/>
</g>
</g>
<defs>
<filter id="filter0_f_1512_2436" x="498.124" y="118.07" width="1663.25" height="1445.93" filterUnits="userSpaceOnUse" color-interpolation-filters="sRGB">
<feFlood flood-opacity="0" result="BackgroundImageFix"/>
<feBlend mode="normal" in="SourceGraphic" in2="BackgroundImageFix" result="shape"/>
<feGaussianBlur stdDeviation="107.415" result="effect1_foregroundBlur_1512_2436"/>
</filter>
<filter id="filter1_f_1512_2436" x="9.15685e-05" y="151.571" width="1430.53" height="1333.81" filterUnits="userSpaceOnUse" color-interpolation-filters="sRGB">
<feFlood flood-opacity="0" result="BackgroundImageFix"/>
<feBlend mode="normal" in="SourceGraphic" in2="BackgroundImageFix" result="shape"/>
<feGaussianBlur stdDeviation="124.936" result="effect1_foregroundBlur_1512_2436"/>
</filter>
<filter id="filter2_f_1512_2436" x="106.602" y="-9.15685e-05" width="1427.35" height="1380.72" filterUnits="userSpaceOnUse" color-interpolation-filters="sRGB">
<feFlood flood-opacity="0" result="BackgroundImageFix"/>
<feBlend mode="normal" in="SourceGraphic" in2="BackgroundImageFix" result="shape"/>
<feGaussianBlur stdDeviation="57.0726" result="effect1_foregroundBlur_1512_2436"/>
</filter>
<filter id="filter3_f_1512_2436" x="449.579" y="559.208" width="567.514" height="798.291" filterUnits="userSpaceOnUse" color-interpolation-filters="sRGB">
<feFlood flood-opacity="0" result="BackgroundImageFix"/>
<feBlend mode="normal" in="SourceGraphic" in2="BackgroundImageFix" result="shape"/>
<feGaussianBlur stdDeviation="50" result="effect1_foregroundBlur_1512_2436"/>
</filter>
<linearGradient id="paint0_linear_1512_2436" x1="1789.94" y1="827.484" x2="1443.54" y2="785.304" gradientUnits="userSpaceOnUse">
<stop stop-color="#FFD6CE"/>
<stop offset="1" stop-color="#FF6F72"/>
</linearGradient>
<linearGradient id="paint1_linear_1512_2436" x1="1057.9" y1="641.918" x2="593.224" y2="1144.53" gradientUnits="userSpaceOnUse">
<stop offset="0.525507" stop-color="#7A4AEB"/>
<stop offset="0.869213" stop-color="#8756F9"/>
</linearGradient>
</defs>
</svg>
