<svg width="18" height="20" viewBox="0 0 18 20" fill="none" xmlns="http://www.w3.org/2000/svg">
<g id="calendar_today">
<mask id="mask0_766_1914" style="mask-type:alpha" maskUnits="userSpaceOnUse" x="-3" y="-2" width="24" height="24">
<rect id="Bounding box" x="-3" y="-2" width="24" height="24" fill="#D9D9D9"/>
</mask>
<g mask="url(#mask0_766_1914)">
<path id="calendar_today_2" d="M2 20C1.45 20 0.979167 19.8042 0.5875 19.4125C0.195833 19.0208 -1.73053e-08 18.55 -1.67922e-08 18L-3.7316e-09 4C-3.2185e-09 3.45 0.195833 2.97917 0.5875 2.5875C0.979167 2.19583 1.45 2 2 2L3 2L3 2.7987e-09L5 4.6645e-09L5 2L13 2L13 1.21277e-08L15 1.39935e-08L15 2L16 2C16.55 2 17.0208 2.19583 17.4125 2.5875C17.8042 2.97917 18 3.45 18 4L18 18C18 18.55 17.8042 19.0208 17.4125 19.4125C17.0208 19.8042 16.55 20 16 20L2 20ZM2 18L16 18L16 8L2 8L2 18Z" fill="white"/>
</g>
</g>
</svg>
