<svg xmlns="http://www.w3.org/2000/svg" width="36" height="36" viewBox="0 0 36 36"><g transform="translate(4.499999523162842 2.999999523162842)" fill="#FF6F72"><path fill-rule="nonzero" d="M11.8001 24.4751L6.57487 19.275L8.35013 17.5001L11.8001 20.8999L18.4999 14.2001L20.2751 16.0001L11.8001 24.4751ZM2.50012 30C1.82512 30 1.23962 29.7521 0.743625 29.2564C0.247875 28.7604 0 28.1749 0 27.4999L0 4.99988C0 4.32488 0.247875 3.7395 0.743625 3.24375C1.23962 2.748 1.82512 2.50012 2.50012 2.50012L4.62488 2.50012L4.62488 0L7.24987 0L7.24987 2.50012L19.7501 2.50012L19.7501 0L22.3751 0L22.3751 2.50012L24.4999 2.50012C25.1749 2.50012 25.7604 2.748 26.2564 3.24375C26.7521 3.7395 27 4.32488 27 4.99988L27 27.4999C27 28.1749 26.7521 28.7604 26.2564 29.2564C25.7604 29.7521 25.1749 30 24.4999 30L2.50012 30ZM2.50012 27.4999L24.4999 27.4999L24.4999 11.7499L2.50012 11.7499L2.50012 27.4999ZM2.50012 9.25012L24.4999 9.25012L24.4999 4.99988L2.50012 4.99988L2.50012 9.25012Z"/></g></svg>